<?xml version="1.0" encoding="utf-8"?>
<!-- Generator: Adobe Illustrator 15.0.2, SVG Export Plug-In  -->
<!DOCTYPE svg PUBLIC "-//W3C//DTD SVG 1.1//EN" "http://www.w3.org/Graphics/SVG/1.1/DTD/svg11.dtd" [
	<!ENTITY ns_flows "http://ns.adobe.com/Flows/1.0/">
]>
<svg version="1.1"
	 xmlns="http://www.w3.org/2000/svg" xmlns:xlink="http://www.w3.org/1999/xlink" xmlns:a="http://ns.adobe.com/AdobeSVGViewerExtensions/3.0/"
	 x="0px" y="0px" width="112px" height="26px" viewBox="0 0 112 26" overflow="visible" enable-background="new 0 0 112 26"
	 xml:space="preserve">
<defs>
</defs>
<path display="none" d="M17.616,22.195C18.083,23.064,17.549,24,16.513,24h-3.811c-0.334,0-0.635-0.167-0.769-0.468l-3.477-6.72
	c-0.066-0.102-0.167-0.166-0.268-0.166H6.853c-0.602,0-1.036,0.435-1.036,1.035v5.279C5.816,23.566,5.382,24,4.78,24H1.037
	C0.435,24,0,23.566,0,22.963V1.638c0-0.602,0.435-1.036,1.037-1.036h7.32c5.95,0,8.356,2.541,8.356,8.022
	c0,3.109-0.769,5.283-2.54,6.552c-0.134,0.1-0.168,0.268-0.101,0.434L17.616,22.195z M6.853,6.351c-0.602,0-1.036,0.435-1.036,1.037
	v2.474c0,0.602,0.435,1.036,1.036,1.036h1.705c1.604,0,2.407-0.201,2.407-2.273s-0.802-2.273-2.407-2.273L6.853,6.351L6.853,6.351z"
	/>
<path display="none" d="M34.866,0.602c0.669,0,1.003,0.334,1.003,1.002v3.744c0,0.635-0.334,1.002-1.003,1.002h-8.089
	c-0.635,0-1.003,0.334-1.003,1.003v1.07c0,0.635,0.368,1.003,1.003,1.003h5.181c0.668,0,1.002,0.333,1.002,1.002v3.744
	c0,0.635-0.334,1.003-1.002,1.003h-5.181c-0.635,0-1.003,0.333-1.003,1.003v1.069c0,0.635,0.368,1.003,1.003,1.003h8.089
	c0.669,0,1.003,0.334,1.003,1.003v3.743c0,0.669-0.334,1.003-1.003,1.003H20.828c-0.635,0-1.003-0.367-1.003-1.003V1.604
	c0-0.668,0.368-1.002,1.003-1.002H34.866z"/>
<path display="none" d="M54.657,22.864c0,0.735-0.334,1.137-1.002,1.137h-3.744c-0.636,0-1.003-0.334-1.003-1.003V20.09
	c0-0.669-0.334-1.003-1.003-1.003H45.03c-0.635,0-1.002,0.334-1.002,1.003v2.908c0,0.669-0.334,1.003-1.002,1.003h-3.744
	c-0.636,0-1.002-0.401-1.002-1.137V8.691C38.279,4.48,38.947,0,46.468,0s8.189,4.48,8.189,8.691V22.864z M48.908,8.691
	c0-1.604-0.234-2.406-2.44-2.406c-2.206,0-2.44,0.802-2.44,2.406v3.644c0,0.635,0.368,1.003,1.002,1.003h2.875
	c0.668-0.033,1.003-0.368,1.003-1.037V8.691z"/>
<path display="none" d="M66.292,0.602c6.284,0,8.356,2.541,8.356,8.022v7.321c0,5.48-2.072,8.056-8.356,8.056h-7.454
	c-0.635,0-1.003-0.367-1.003-1.003V1.638c0-0.668,0.334-1.003,1.003-1.036H66.292z M66.393,18.251c1.604,0,2.406-0.269,2.406-2.274
	c0-0.031,0-7.318,0-7.353c0-2.072-0.802-2.273-2.406-2.273h-1.806c-0.635,0-1.003,0.334-1.003,1.003v9.895
	c0,0.635,0.368,1.003,1.003,1.003L66.393,18.251L66.393,18.251z"/>
<path display="none" d="M92.702,0.602c0.669,0,1.002,0.334,1.002,1.002v3.744c0,0.635-0.333,1.002-1.002,1.002h-8.089
	c-0.635,0-1.004,0.334-1.004,1.003v1.07c0,0.635,0.369,1.003,1.004,1.003h5.181c0.668,0,1.003,0.333,1.003,1.002v3.744
	c0,0.635-0.334,1.003-1.003,1.003h-5.181c-0.635,0-1.004,0.333-1.004,1.003v1.069c0,0.635,0.369,1.003,1.004,1.003h8.089
	c0.669,0,1.002,0.334,1.002,1.003v3.743c0,0.669-0.333,1.003-1.002,1.003H78.663c-0.636,0-1.003-0.367-1.003-1.003V1.604
	c0-0.668,0.367-1.002,1.003-1.002H92.702z"/>
<path display="none" d="M113.896,22.195c0.469,0.869-0.068,1.806-1.104,1.806h-3.812c-0.334,0-0.635-0.167-0.771-0.468l-3.478-6.719
	c-0.065-0.103-0.166-0.168-0.267-0.168h-1.338c-0.603,0-1.037,0.436-1.037,1.037v5.278c0,0.604-0.434,1.037-1.034,1.037h-3.744
	c-0.603,0-1.037-0.435-1.037-1.037V1.638c0-0.602,0.436-1.036,1.037-1.036h7.319c5.949,0,8.357,2.541,8.357,8.022
	c0,3.109-0.771,5.283-2.541,6.552c-0.136,0.1-0.166,0.268-0.101,0.434L113.896,22.195z M103.133,6.351
	c-0.602,0-1.037,0.435-1.037,1.037v2.474c0,0.602,0.438,1.036,1.037,1.036h1.705c1.605,0,2.406-0.201,2.406-2.273
	s-0.801-2.273-2.406-2.273L103.133,6.351L103.133,6.351z"/>
<path fill="#FFFFFF" d="M32.302,16.539c-0.099-0.198-0.329-0.362-0.625-0.23c-0.823,0.362-1.811,0.758-3.095,0.758
	c-2.501,0-3.786-1.25-3.885-2.602h4.379c3.028,0,4.411-1.646,4.411-3.752c0-2.042-1.679-4.049-5.3-4.049
	c-4.05,0-6.716,2.699-6.716,6.484c0,4.049,3.094,6.519,7.045,6.519c1.844,0,3.556-0.69,4.247-1.153
	c0.23-0.164,0.264-0.428,0.165-0.656L32.302,16.539z M28.318,9.297c1.646,0,2.107,0.789,2.107,1.448
	c0,0.955-0.625,1.514-1.876,1.514c-1.745,0-3.819,0-3.819,0C24.927,10.877,26.08,9.297,28.318,9.297z"/>
<path fill="#FFFFFF" d="M49.816,17.395h-0.23c-0.856,0-1.647-0.131-1.647-1.315V7.124c0-0.23-0.164-0.46-0.428-0.46H46.03
	c-0.263,0-0.46,0.131-0.592,0.395l-0.329,0.724c0,0-1.547-1.119-3.457-1.119c-4.049,0-6.32,2.83-6.32,6.484
	c0,4.017,2.864,6.519,6.32,6.519c1.679,0,2.864-0.562,3.72-1.351c0.658,1.021,1.778,1.351,2.733,1.351
	c0.855,0,1.416-0.265,1.745-0.461c0.197-0.131,0.296-0.329,0.296-0.526v-0.955C50.146,17.525,50.014,17.395,49.816,17.395z
	 M44.68,15.882c-0.526,0.593-1.382,1.085-2.634,1.085c-1.975,0-3.456-1.415-3.456-3.819c0-2.37,1.185-3.786,3.259-3.786
	c1.021,0,2.107,0.395,2.831,1.087V15.882z"/>
<path fill="#FFFFFF" d="M85.641,10.482h1.909c1.054,0,1.479,0.559,1.479,1.415v4.378c0,2.404,1.646,3.392,3.459,3.392
	c0.822,0,1.414-0.265,1.711-0.461c0.197-0.131,0.297-0.329,0.297-0.526v-0.955c0-0.164-0.1-0.33-0.329-0.33h-0.198
	c-0.889,0-1.679-0.131-1.679-1.315v-4.28c0-2.106-1.25-3.555-3.722-3.555h-2.601c0-1.811-0.724-2.469-2.37-2.469
	c-1.58,0-2.338,0.725-2.338,2.337c0,1.186,0.495,1.877,1.219,2.207l-1.414,8.394c-0.066,0.329,0.195,0.626,0.592,0.626h1.811
	c0.461,0,0.758-0.231,0.823-0.657L85.641,10.482z"/>
<path fill="#FFFFFF" d="M65.65,17.395h-0.229c-0.856,0-1.646-0.131-1.646-1.315V2.251c0-0.262-0.197-0.493-0.461-0.493h-2.338
	c-0.264,0-0.461,0.23-0.461,0.493v5.268c-0.592-0.362-1.744-0.855-3.029-0.855c-4.048,0-6.32,2.83-6.32,6.484
	c0,4.017,2.897,6.519,6.32,6.519c1.68,0,2.931-0.562,3.721-1.383c0.691,1.054,1.777,1.383,2.766,1.383
	c0.823,0,1.416-0.265,1.711-0.461c0.198-0.131,0.297-0.329,0.297-0.526v-0.955C65.98,17.525,65.85,17.395,65.65,17.395z
	 M60.516,15.882c-0.492,0.593-1.383,1.085-2.633,1.085c-1.976,0-3.457-1.415-3.457-3.819c0-2.37,1.185-3.786,3.26-3.786
	c1.021,0,2.106,0.395,2.83,1.087V15.882z"/>
<path fill="#FFFFFF" d="M104.373,15.684c-0.725,0.725-1.613,1.055-2.471,1.055c-1.711,0-2.73-0.922-2.73-2.897V7.289
	c0-0.263-0.197-0.494-0.462-0.494h-2.337c-0.264,0-0.462,0.23-0.462,0.494v6.781c0,3.589,2.864,5.269,5.399,5.269
	c1.316,0,2.237-0.33,3.062-0.955v1.284c0,2.073-1.878,2.666-3.228,2.666c-0.955,0-1.811-0.296-2.437-0.689
	c-0.229-0.133-0.494-0.033-0.626,0.196l-0.758,1.382c-0.131,0.23-0.131,0.527,0.166,0.727c0.726,0.49,1.945,1.051,3.82,1.051
	c3.95,0,6.321-2.141,6.321-6.288V7.256c0-0.23-0.198-0.461-0.461-0.461h-2.338c-0.263,0-0.46,0.23-0.46,0.494V15.684z"/>
<path fill="#FFFFFF" d="M109.146,1.758c-0.856,0-1.515,0.691-1.515,1.48c0,0.823,0.657,1.515,1.479,1.515
	c0.855,0,1.516-0.691,1.516-1.515C110.627,2.417,109.968,1.758,109.146,1.758z M109.111,4.49c-0.689,0-1.217-0.559-1.217-1.251
	c0-0.658,0.526-1.218,1.217-1.218c0.727,0,1.253,0.527,1.253,1.218C110.364,3.931,109.838,4.49,109.111,4.49z"/>
<path fill="#FFFFFF" d="M109.805,2.943c0-0.296-0.23-0.462-0.593-0.462h-0.657v1.481h0.327V3.469h0.265l0.295,0.494h0.396
	l-0.361-0.559C109.673,3.338,109.805,3.207,109.805,2.943z M109.212,3.207h-0.33V2.745h0.33c0.131,0,0.229,0.099,0.229,0.23
	C109.441,3.107,109.377,3.207,109.212,3.207z"/>
<path fill="#FFFFFF" d="M15.157,12.542c2.597-0.58,4.377-2.608,4.377-5.187C19.535,4.162,16.44,1,11.14,1C5.313,1,1,3.766,1,8.901
	c0,2.502,1.679,4.181,4.148,4.181c0.625,0,1.119-0.132,1.679-0.46l-1.12,6.09c-0.066,0.329,0.197,0.626,0.593,0.626h1.91
	c0.46,0,0.757-0.23,0.823-0.658l2.008-11.819c0.033-0.231-0.099-0.527-0.428-0.527H8.375c-0.362,0-0.526,0.23-0.56,0.461
	L7.288,9.824c-0.132,0.79-0.659,1.053-1.35,1.053c-1.284,0-1.811-1.021-1.811-2.106c0-3.556,3.457-5.202,6.716-5.202
	c3.193,0,5.268,1.613,5.268,3.951c0,2.37-1.712,3.457-3.885,3.457h-0.231c-0.296,0-0.46,0.197-0.493,0.428l-0.264,1.448
	c-0.033,0.198,0.1,0.428,0.396,0.428c1.745,0,1.876,2.238,2.568,3.753c0.988,2.14,2.37,2.634,4.247,2.634
	c0.823,0,1.449-0.197,1.745-0.395c0.198-0.101,0.263-0.396,0.263-0.562v-1.087c0-0.197-0.099-0.329-0.263-0.329h-0.33
	c-0.987,0-1.876-0.428-2.567-1.646c-0.986-2.066-1.511-2.721-2.139-3.061L15.157,12.542z"/>
<path fill="#FFFFFF" d="M77.602,16.539c-0.099-0.198-0.328-0.362-0.625-0.23c-0.822,0.362-1.811,0.758-3.094,0.758
	c-2.504,0-3.787-1.25-3.886-2.602h4.378c3.029,0,4.412-1.646,4.412-3.752c0-2.042-1.68-4.049-5.301-4.049
	c-4.049,0-6.717,2.699-6.717,6.484c0,4.049,3.096,6.519,7.047,6.519c1.843,0,3.554-0.69,4.246-1.153
	c0.229-0.164,0.264-0.428,0.164-0.656L77.602,16.539z M73.618,9.297c1.646,0,2.106,0.789,2.106,1.448
	c0,0.955-0.625,1.514-1.877,1.514c-1.744,0-3.818,0-3.818,0C70.229,10.877,71.379,9.297,73.618,9.297z"/>
</svg>
